<svg width="24" height="24" viewBox="0 0 24 24" fill="none" xmlns="http://www.w3.org/2000/svg">
<path fill-rule="evenodd" clip-rule="evenodd" d="M6.48311 3.31529C2.81152 4.49738 1.17386 8.50569 2.40482 12.3295C3.02947 14.1301 4.04534 15.7485 5.38004 17.0762C7.21101 18.8545 9.22254 20.4194 11.3849 21.7491L11.6304 21.8961C11.8656 22.0369 12.1598 22.0344 12.3926 21.8897L12.6218 21.7473C14.7812 20.4194 16.7927 18.8545 18.6174 17.0824C19.9584 15.7485 20.9743 14.1301 21.5937 12.3452C22.8291 8.50801 21.1847 4.4978 17.512 3.31535L17.2463 3.23623C15.5624 2.77309 13.773 3.0013 12.2645 3.85535L11.9964 4.01429L11.733 3.85623C10.1419 2.95344 8.2404 2.75003 6.48311 3.31529ZM11.3746 5.35427L11.5714 5.49538C11.8307 5.68111 12.1806 5.67742 12.436 5.48625C13.766 4.49057 15.4873 4.20082 17.0641 4.70669C19.9097 5.62284 21.2047 8.78096 20.2064 11.882C19.665 13.4417 18.7687 14.8696 17.5916 16.0405L17.0636 16.5421C15.641 17.8642 14.1026 19.061 12.4691 20.1156L12.0013 20.4098L12.144 20.4998C10.0805 19.2308 8.15375 17.7319 6.40582 16.0343C5.23505 14.8696 4.33877 13.4417 3.79207 11.8664C2.79808 8.77801 4.08746 5.62212 6.93153 4.70646C8.43331 4.22339 10.0706 4.46289 11.3746 5.35427ZM15.8703 6.98374C15.4855 6.86093 15.0739 7.07304 14.951 7.45749C14.8281 7.84194 15.0404 8.25316 15.4252 8.37597C16.1814 8.61735 16.7206 9.29803 16.7881 10.101C16.822 10.5031 17.1757 10.8017 17.5782 10.7679C17.9807 10.7341 18.2796 10.3807 18.2457 9.97853C18.1288 8.58859 17.1917 7.40551 15.8703 6.98374Z" fill="#000C22"/>
</svg>
