<svg width="24" height="24" viewBox="0 0 24 24" fill="none" xmlns="http://www.w3.org/2000/svg">
<path fill-rule="evenodd" clip-rule="evenodd" d="M2.87803 2.01111L2.77658 2.0005C2.4074 1.987 2.07586 2.24808 2.01111 2.62222L2.0005 2.72366C1.987 3.09285 2.24808 3.42438 2.62222 3.48914L4.13122 3.75012L5.04575 14.6459L5.06468 14.8096C5.24868 16.0521 6.31732 16.9861 7.59012 16.9861H18.5021L18.6665 16.9809C19.8628 16.9045 20.8547 15.9998 21.0293 14.7979L21.9784 8.23954L21.9948 8.08889C22.0821 6.88982 21.1322 5.84912 19.9091 5.84912H5.81222L5.57749 3.04739L5.5598 2.93654C5.49136 2.64822 5.25698 2.42285 4.95803 2.37111L2.87803 2.01111ZM7.47418 15.4798C6.97892 15.4256 6.58283 15.0279 6.54053 14.5208L5.93822 7.34912H19.9091L19.9973 7.35561C20.313 7.40255 20.5411 7.69782 20.4938 8.02477L19.5449 14.5827L19.521 14.7C19.4007 15.1585 18.9853 15.4861 18.5021 15.4861H7.59012L7.47418 15.4798ZM5.90852 20.0854C5.90852 19.2493 6.5862 18.5704 7.42252 18.5704C8.25874 18.5704 8.93752 19.2492 8.93752 20.0854C8.93752 20.9217 8.25862 21.5994 7.42252 21.5994C6.58631 21.5994 5.90852 20.9216 5.90852 20.0854ZM17.1599 20.0854C17.1599 19.2492 17.8387 18.5704 18.6749 18.5704C19.5111 18.5704 20.1899 19.2492 20.1899 20.0854C20.1899 20.9217 19.511 21.5994 18.6749 21.5994C17.8388 21.5994 17.1599 20.9217 17.1599 20.0854ZM17.6486 10.2951C17.6486 9.88091 17.3128 9.54512 16.8986 9.54512H14.1256L14.0239 9.55197C13.6578 9.60163 13.3756 9.91543 13.3756 10.2951C13.3756 10.7093 13.7114 11.0451 14.1256 11.0451H16.8986L17.0004 11.0383C17.3665 10.9886 17.6486 10.6748 17.6486 10.2951Z" fill="#000C22"/>
</svg>
